# xmcd CD database file
#
# Track frame offsets:
#	150
#	22712
#	74017
#	138587
#	172715
#	219517
#	261300
#
# Disc length: 3873 seconds
#
# Revision: 0
# Processed by: cddbd v1.5.2PL0 Copyright (c) Steve Scherf et al.
# Submitted via: CDex 1.51
#
DISCID=5f0f1f07
DTITLE=Robert Hurst - Unrehurst
DYEAR=2001
DGENRE=Jazz
TTITLE0=Mr. Thomas
TTITLE1=Bu Waynea
TTITLE2=Unrehurst
TTITLE3=April Foolproof
TTITLE4=Unflurgenized Colorations
TTITLE5=Dr. Bleuss
TTITLE6=Thowed
EXTD=YEAR: 2001
EXTT0=
EXTT1=
EXTT2=
EXTT3=
EXTT4=
EXTT5=
EXTT6=
PLAYORDER=
